<svg xmlns="http://www.w3.org/2000/svg" viewBox="0 0 1280 720" width="100%" height="100%">
  <defs>
    <linearGradient id="bgGrad4" x1="0%" y1="0%" x2="100%" y2="100%">
      <stop offset="0%" stop-color="#0e261d" />
      <stop offset="100%" stop-color="#070a12" />
    </linearGradient>
  </defs>

  <rect width="1280" height="720" fill="url(#bgGrad4)" rx="12" />
  <rect width="1272" height="712" x="4" y="4" fill="none" stroke="#10b981" stroke-width="2" stroke-opacity="0.3" rx="10" />

  <g stroke="#10b981" stroke-opacity="0.08" stroke-width="1">
    <line x1="0" y1="180" x2="1280" y2="180" />
    <line x1="0" y1="360" x2="1280" y2="360" />
    <line x1="0" y1="540" x2="1280" y2="540" />
    <line x1="320" y1="0" x2="320" y2="720" />
    <line x1="640" y1="0" x2="640" y2="720" />
    <line x1="960" y1="0" x2="960" y2="720" />
  </g>

  <g transform="translate(640, 310)" text-anchor="middle">
    <polygon points="0,-45 40,0 0,45 -40,0" fill="none" stroke="#10b981" stroke-width="4" />
    <circle cx="0" cy="0" r="10" fill="#10b981" />
  </g>

  <rect x="340" y="440" width="600" height="60" rx="10" fill="#070a12" fill-opacity="0.9" stroke="#10b981" stroke-width="2" />
  <text x="640" y="475" font-family="'Space Grotesk', sans-serif" font-size="22" font-weight="bold" fill="#10b981" text-anchor="middle" letter-spacing="2">PROJECT 4: TECH ART / SHADER PLACEHOLDER</text>
  <text x="640" y="520" font-family="sans-serif" font-size="16" fill="#94a3b8" text-anchor="middle">Replace with your 16:9 shader/vfx preview (e.g., assets/images/shader-vfx.jpg)</text>
</svg>
